<?xml version="1.0" encoding="UTF-8"?>
<svg width="213px" height="32px" viewBox="0 0 213 32" version="1.1" xmlns="http://www.w3.org/2000/svg" xmlns:xlink="http://www.w3.org/1999/xlink">
    <!-- Generator: Sketch 52.6 (67491) - http://www.bohemiancoding.com/sketch -->
    <title>Group 2</title>
    <desc>Created with Sketch.</desc>
    <g id="Salespage2.0" stroke="none" stroke-width="1" fill="none" fill-rule="evenodd">
        <g id="Sales_landing" transform="translate(-31.000000, -32.000000)" fill="#FFFFFF">
            <g id="Hero" transform="translate(31.000000, 31.000000)">
                <g id="Group-3">
                    <g id="Group-2" transform="translate(0.000000, 1.000000)">
                        <path d="M23.0181,31.4287 C22.7591,29.6577 21.8951,29.0537 20.2971,28.2757 C19.0011,29.5287 16.4111,31.2987 12.6531,31.2987 C5.4841,31.2987 0.0001,24.8647 0.0001,16.6157 C0.0001,5.5167 7.3851,1.1127 12.9131,1.1127 C15.9781,1.1127 17.5771,1.9327 18.7431,1.9327 C19.7791,1.9327 20.0811,1.3717 20.0381,0.5507 L20.7291,0.3347 L24.5291,10.6127 L23.8381,10.9587 C19.3041,3.4877 16.0221,2.2787 12.9131,2.2787 C8.1621,2.2787 4.1451,5.9917 4.1451,16.0117 C4.1451,25.1237 7.5581,29.9167 13.5601,29.9167 C16.1941,29.9167 18.3541,28.7507 20.0811,27.0237 L20.0811,21.1507 C20.0811,19.2497 19.5631,18.7757 17.7921,18.7757 L17.7061,18.7757 L17.7061,17.9547 L18.6561,17.9547 C19.7361,17.9547 20.6001,18.0837 21.9381,18.0837 C23.2771,18.0837 24.0981,17.9547 25.1771,17.9547 L26.1271,17.9547 L26.1271,18.7757 L26.0411,18.7757 C24.2701,18.7757 23.7521,19.2497 23.7521,21.1507 L23.7521,31.4287 L23.0181,31.4287 Z" id="Fill-2"></path>
                        <path d="M78.2095,30.9102 C77.4755,30.9102 76.7845,30.9532 75.9205,30.9532 L57.9995,5.1722 L57.9995,25.0802 C57.9995,27.6282 58.6035,30.0902 61.5405,30.1332 L61.6265,30.1332 L61.6265,30.9532 L60.6325,30.9532 C59.8985,30.9532 58.7325,30.8242 57.4375,30.8242 C56.0985,30.8242 54.9325,30.9532 54.1985,30.9532 L53.2485,30.9532 L53.2485,30.1332 L53.3345,30.1332 C56.2285,30.1332 56.8335,27.6282 56.8335,25.0802 L56.8335,4.0062 C55.7965,2.5802 55.2345,2.3652 54.0255,2.3652 L53.9385,2.3652 L53.9385,1.5442 L54.5005,1.5442 C55.7095,1.5442 56.1855,1.5872 57.1785,1.5872 C58.2575,1.5872 58.9925,1.5442 59.9415,1.5442 L77.1295,26.1602 L77.1295,7.4172 C77.1295,4.8692 76.5685,2.4082 73.5885,2.3652 L73.5455,2.3652 L73.5455,1.5442 L74.5395,1.5442 C75.2725,1.5442 76.3965,1.6742 77.7345,1.6742 C79.0735,1.6742 80.2395,1.5442 80.9735,1.5442 L81.9235,1.5442 L81.9235,2.3652 L81.8375,2.3652 C78.9435,2.3652 78.2955,4.8692 78.2955,7.4172 L78.2955,27.8442 L80.3685,30.9532 C79.3755,30.9532 78.7715,30.9102 78.2095,30.9102" id="Fill-4"></path>
                        <path d="M122.3452,2.7534 L115.9102,2.7534 L115.9102,16.1404 L122.7342,16.1404 C126.9232,16.1404 128.3912,14.1544 128.3912,9.4034 C128.3912,5.1284 126.9662,2.7534 122.3452,2.7534 M131.7602,30.8244 C130.7662,30.8244 130.1182,30.9534 129.2122,30.9534 L121.7832,17.3504 L115.9102,17.3504 L115.9102,27.7144 C115.9102,29.6574 116.4282,30.1324 118.1992,30.1324 L118.2862,30.1324 L118.2862,30.9534 L117.3362,30.9534 C116.2562,30.9534 115.4352,30.8244 114.0962,30.8244 C112.7582,30.8244 111.8942,30.9534 110.8582,30.9534 L109.9072,30.9534 L109.9072,30.1324 L109.9512,30.1324 C111.7212,30.1324 112.2402,29.6574 112.2402,27.7144 L112.2402,4.7394 C112.2402,2.8394 111.7212,2.3644 109.9512,2.3644 L109.9072,2.3644 L109.9072,1.5444 L110.8582,1.5444 C111.8942,1.5444 112.7582,1.5874 114.0962,1.5874 C115.6952,1.5874 116.6452,1.5444 118.0272,1.5444 L122.5612,1.5444 C128.1752,1.5444 132.4502,4.3944 132.4502,9.3604 C132.4502,13.6794 129.2982,17.3504 123.3382,17.3504 L123.1222,17.3504 C124.0732,18.9914 124.7202,19.5094 127.1822,19.5094 L130.9822,26.5054 C132.7962,29.9174 134.0482,30.0464 135.7332,30.1324 L135.7332,30.9534 C133.5732,30.9534 133.4442,30.8244 131.7602,30.8244" id="Fill-6"></path>
                        <path d="M158.146,16.2271 C158.146,8.6261 156.203,2.2781 149.423,2.2781 C142.6,2.2781 140.656,8.6261 140.656,16.2271 C140.656,23.8281 142.6,30.2191 149.423,30.2191 C156.203,30.2191 158.146,23.8281 158.146,16.2271 M136.424,16.2271 C136.424,7.4171 141.995,1.1121 149.423,1.1121 C156.808,1.1121 162.422,7.4171 162.422,16.2271 C162.422,24.9941 156.808,31.3851 149.423,31.3851 C141.995,31.3851 136.424,24.9941 136.424,16.2271" id="Fill-8"></path>
                        <path d="M177.105,31.2988 C170.325,31.2988 166.611,28.4488 166.611,21.7118 L166.611,4.7828 C166.611,2.8398 166.136,2.3648 164.365,2.3648 L164.278,2.3648 L164.278,1.5438 L165.229,1.5438 C166.265,1.5438 167.129,1.6738 168.468,1.6738 C169.806,1.6738 170.627,1.5438 171.707,1.5438 L172.657,1.5438 L172.657,2.3648 L172.57,2.3648 C170.8,2.3648 170.325,2.8398 170.325,4.7828 L170.325,20.2868 C170.325,27.0238 172.657,29.9598 178.012,29.9598 C182.633,29.9598 185.742,26.7648 185.742,21.7548 L185.742,7.4178 C185.742,4.8698 185.137,2.4078 182.201,2.3648 L182.158,2.3648 L182.158,1.5438 L183.107,1.5438 C183.842,1.5438 185.008,1.6738 186.303,1.6738 C187.686,1.6738 188.851,1.5438 189.585,1.5438 L190.492,1.5438 L190.492,2.3648 L190.449,2.3648 C187.556,2.3648 186.908,4.8698 186.908,7.4178 L186.908,21.7548 C186.908,27.4988 183.324,31.2988 177.105,31.2988" id="Fill-10"></path>
                        <path d="M203.5352,31.3853 C199.7352,31.3853 197.4032,30.0473 196.2802,30.0473 C195.5022,30.0473 194.9842,30.4783 195.1142,31.3853 L194.2932,31.6013 L190.9682,21.3233 L191.7022,20.9773 C195.9772,28.4483 199.4752,30.2193 203.4922,30.2193 C207.0332,30.2193 209.6242,28.0603 209.6242,24.8643 C209.6242,21.7983 207.7672,19.8113 202.9732,18.0413 L199.3892,16.7023 C195.7622,15.3643 192.2212,12.7723 192.2212,8.4973 C192.2212,3.9193 195.8482,1.1123 200.3832,1.1123 C202.9732,1.1123 204.7442,1.9323 205.9532,1.9323 C206.8172,1.9323 207.3352,1.5443 207.2062,0.5513 L208.0262,0.3353 L211.6112,9.6633 L210.8772,10.0083 C206.9472,3.5733 203.5352,2.2783 200.3832,2.2783 C196.7122,2.2783 194.7252,4.3943 194.7252,6.9423 C194.7252,9.4473 196.2802,11.2183 200.9442,12.9883 L204.6582,14.3703 C209.4082,16.0973 212.3882,18.8613 212.3882,22.6613 C212.3882,28.4483 207.6382,31.3853 203.5352,31.3853" id="Fill-12"></path>
                        <path d="M32.3892,30.9102 C33.9872,30.9102 34.9372,30.9532 36.3192,30.9532 L45.6472,30.9532 C45.6602,30.9532 45.6732,30.9542 45.6862,30.9542 L48.5032,30.9542 L52.0382,21.5392 L51.3472,21.1502 C49.2312,24.5622 47.4172,27.0672 46.1652,28.2762 C44.8272,29.6152 43.8332,29.7442 42.2352,29.7442 L34.2032,29.7442 L34.2032,16.6162 L39.4282,16.6162 C42.5382,16.6162 42.8832,18.9482 43.2722,22.1872 L44.0492,22.1872 L44.0492,10.0082 L43.2722,10.0082 C42.8832,13.2472 42.5382,15.4502 39.4282,15.4502 L34.2032,15.4502 L34.2032,2.7532 L41.8472,2.7532 C43.4012,2.7532 44.4382,2.9262 45.5602,3.9622 C46.8562,5.1722 48.2812,7.0722 50.6572,10.5272 L51.3912,10.1382 L48.1222,1.5442 L45.2592,1.5442 L36.4922,1.5442 C35.1532,1.5442 33.9872,1.5872 32.3892,1.5872 C31.0502,1.5872 30.1862,1.5442 29.1502,1.5442 L28.2002,1.5442 L28.2002,2.3652 L28.2432,2.3652 C30.0142,2.3652 30.5322,2.8402 30.5322,4.7402 L30.5322,27.7142 C30.5322,29.6582 30.0142,30.1332 28.2432,30.1332 L28.2002,30.1332 L28.2002,30.9532 L29.1502,30.9532 C30.1862,30.9532 31.0502,30.9102 32.3892,30.9102" id="Fill-14"></path>
                        <path d="M88.0557,30.9102 C89.6537,30.9102 90.6037,30.9532 91.9857,30.9532 L101.3137,30.9532 C101.3277,30.9532 101.3397,30.9542 101.3527,30.9542 L104.1697,30.9542 L107.7057,21.5392 L107.0147,21.1502 C104.8987,24.5622 103.0847,27.0672 101.8317,28.2762 C100.4937,29.6152 99.4997,29.7442 97.9027,29.7442 L89.8697,29.7442 L89.8697,16.6162 L95.0957,16.6162 C98.2047,16.6162 98.5497,18.9482 98.9387,22.1872 L99.7157,22.1872 L99.7157,10.0082 L98.9387,10.0082 C98.5497,13.2472 98.2047,15.4502 95.0957,15.4502 L89.8697,15.4502 L89.8697,2.7532 L97.5137,2.7532 C99.0687,2.7532 100.1047,2.9262 101.2277,3.9622 C102.5227,5.1722 103.9487,7.0722 106.3237,10.5272 L107.0577,10.1382 L103.7887,1.5442 L100.9257,1.5442 L92.1587,1.5442 C90.8197,1.5442 89.6537,1.5872 88.0557,1.5872 C86.7177,1.5872 85.8537,1.5442 84.8167,1.5442 L83.8677,1.5442 L83.8677,2.3652 L83.9097,2.3652 C85.6807,2.3652 86.1997,2.8402 86.1997,4.7402 L86.1997,27.7142 C86.1997,29.6582 85.6807,30.1332 83.9097,30.1332 L83.8677,30.1332 L83.8677,30.9532 L84.8167,30.9532 C85.8537,30.9532 86.7177,30.9102 88.0557,30.9102" id="Fill-16"></path>
                    </g>
                </g>
            </g>
        </g>
    </g>
</svg>